<?xml version="1.0" encoding="utf-8"?>
<!-- Generator: Adobe Illustrator 16.0.0, SVG Export Plug-In . SVG Version: 6.00 Build 0)  -->
<!DOCTYPE svg PUBLIC "-//W3C//DTD SVG 1.1//EN" "http://www.w3.org/Graphics/SVG/1.1/DTD/svg11.dtd">
<svg version="1.1" id="Layer_1" xmlns="http://www.w3.org/2000/svg" xmlns:xlink="http://www.w3.org/1999/xlink" x="0px" y="0px"
	 width="34px" height="34px" viewBox="0 0 34 34" enable-background="new 0 0 34 34" xml:space="preserve">
<g>
	<path fill="#333333" d="M122.792,25.038l-9.737-4.308l-9.428,3.885l-0.381-0.926l9.625-3.965c0.127-0.052,0.268-0.051,0.393,0.006
		l9.934,4.393L122.792,25.038z"/>
	<g>
		<path fill="#333333" d="M111.084,25.784l-1.354-1.405h4.893c0,0,0.886,0,0.99,1.405C115.404,25.732,111.084,25.784,111.084,25.784
			z"/>
	</g>
	<g>
		<path fill="#333333" d="M110.928,26.617l-1.197,1.354h1.197c0,0,0.104,2.291,2.342,2.343c0.938-0.155,2.604-0.364,2.344-3.228
			c0.052-0.313,0-0.469,0-0.469H110.928z"/>
	</g>
	<path fill="#333333" d="M108.271,38.066v-4.061c0-1.148,0.935-2.082,2.083-2.082h5.19l0.658-0.67l0.596,0.584l-0.166,0.168
		c0.879,0.244,1.531,1.043,1.531,2v4.061c0,0.109-0.017,0.213-0.031,0.316h0.832c0.012-0.105,0.032-0.207,0.032-0.316v-4.061
		c0-1.607-1.308-2.916-2.915-2.916h-5.728c-1.607,0-2.915,1.309-2.915,2.916v4.061c0,0.109,0.02,0.211,0.031,0.316h0.833
		C108.289,38.279,108.271,38.176,108.271,38.066z"/>
	<polygon fill="#333333" points="110.109,37.467 110.823,36.738 110.823,34.635 109.99,34.635 109.99,38.383 110.823,38.383 
		110.823,37.93 110.705,38.051 	"/>
	<rect x="115.457" y="34.635" fill="#333333" width="0.832" height="3.748"/>
	<circle fill="#333333" cx="110.354" cy="33.49" r="0.573"/>
	<path fill="#333333" d="M110.823,37.93l5.81-5.924c-0.178-0.049-0.359-0.082-0.551-0.082h-0.537l-4.722,4.814V37.93z"/>
	<path fill="#333333" d="M116.633,32.006l0.166-0.168l-0.596-0.584l-0.658,0.67h0.537C116.273,31.924,116.455,31.957,116.633,32.006
		z"/>
	<polygon fill="#333333" points="110.109,37.467 110.705,38.051 110.823,37.93 110.823,36.738 	"/>
</g>
<g>
	<g>
		<path fill="#333333" d="M23.609,26.094H10.103c-0.569,0-1.033-0.465-1.033-1.034V8.538c0-0.569,0.464-1.033,1.033-1.033h13.507
			c0.57,0,1.032,0.464,1.032,1.033V25.06C24.642,25.629,24.18,26.094,23.609,26.094z M10.103,8.391
			c-0.081,0-0.147,0.067-0.147,0.147V25.06c0,0.082,0.066,0.148,0.147,0.148h13.507c0.082,0,0.147-0.066,0.147-0.148V8.538
			c0-0.081-0.065-0.147-0.147-0.147H10.103z"/>
	</g>
	<g>
		<path fill="#333333" d="M26.488,17.9h-0.886V6.313H14.974V5.428h11.072c0.244,0,0.442,0.199,0.442,0.443V17.9z"/>
	</g>
	<g>
		<rect x="11.727" y="10.003" fill="#333333" width="3.248" height="4.06"/>
	</g>
	<g>
		<g>
			<path fill="#333333" d="M16.571,10.742c1.604,0,3.21,0,4.814,0c0.456,0,0.456-0.738,0-0.738c-1.604,0-3.21,0-4.814,0
				C16.115,10.003,16.115,10.742,16.571,10.742L16.571,10.742z"/>
		</g>
	</g>
	<g>
		<g>
			<path fill="#333333" d="M16.571,12.403c1.604,0,3.21,0,4.814,0c0.456,0,0.456-0.738,0-0.738c-1.604,0-3.21,0-4.814,0
				C16.115,11.665,16.115,12.403,16.571,12.403L16.571,12.403z"/>
		</g>
	</g>
	<g>
		<g>
			<path fill="#333333" d="M11.899,17.9c1.604,0,8.063,0,9.668,0c0.456,0,0.456-0.737,0-0.737c-1.604,0-8.064,0-9.668,0
				C11.441,17.163,11.441,17.9,11.899,17.9L11.899,17.9z"/>
		</g>
	</g>
	<g>
		<g>
			<path fill="#333333" d="M11.899,20.303c1.604,0,8.063,0,9.668,0c0.456,0,0.456-0.738,0-0.738c-1.604,0-8.064,0-9.668,0
				C11.441,19.564,11.441,20.303,11.899,20.303L11.899,20.303z"/>
		</g>
	</g>
	<g>
		<g>
			<path fill="#333333" d="M11.899,22.704c1.604,0,8.063,0,9.668,0c0.456,0,0.456-0.737,0-0.737c-1.604,0-8.064,0-9.668,0
				C11.441,21.967,11.441,22.704,11.899,22.704L11.899,22.704z"/>
		</g>
	</g>
</g>
</svg>
