<?xml version="1.0" encoding="utf-8"?>
<!-- Generator: Adobe Illustrator 16.0.0, SVG Export Plug-In . SVG Version: 6.00 Build 0)  -->
<!DOCTYPE svg PUBLIC "-//W3C//DTD SVG 1.1//EN" "http://www.w3.org/Graphics/SVG/1.1/DTD/svg11.dtd">
<svg version="1.1" id="Layer_1" xmlns="http://www.w3.org/2000/svg" xmlns:xlink="http://www.w3.org/1999/xlink" x="0px" y="0px"
	 width="34px" height="34px" viewBox="0 0 34 34" enable-background="new 0 0 34 34" xml:space="preserve">
<g>
	<path fill="#333333" d="M122.792,25.038l-9.737-4.308l-9.428,3.885l-0.381-0.926l9.625-3.965c0.127-0.052,0.268-0.051,0.393,0.006
		l9.934,4.393L122.792,25.038z"/>
	<g>
		<path fill="#333333" d="M111.084,25.784l-1.354-1.405h4.893c0,0,0.886,0,0.99,1.405C115.404,25.732,111.084,25.784,111.084,25.784
			z"/>
	</g>
	<g>
		<path fill="#333333" d="M110.928,26.617l-1.197,1.354h1.197c0,0,0.104,2.291,2.342,2.343c0.938-0.155,2.604-0.364,2.344-3.228
			c0.052-0.313,0-0.469,0-0.469H110.928z"/>
	</g>
	<path fill="#333333" d="M108.271,38.066v-4.061c0-1.148,0.935-2.082,2.083-2.082h5.19l0.658-0.67l0.596,0.584l-0.166,0.168
		c0.879,0.244,1.531,1.043,1.531,2v4.061c0,0.109-0.017,0.213-0.031,0.316h0.832c0.012-0.105,0.032-0.207,0.032-0.316v-4.061
		c0-1.607-1.308-2.916-2.915-2.916h-5.728c-1.607,0-2.915,1.309-2.915,2.916v4.061c0,0.109,0.02,0.211,0.031,0.316h0.833
		C108.289,38.279,108.271,38.176,108.271,38.066z"/>
	<polygon fill="#333333" points="110.109,37.467 110.823,36.738 110.823,34.635 109.99,34.635 109.99,38.383 110.823,38.383 
		110.823,37.93 110.705,38.051 	"/>
	<rect x="115.457" y="34.635" fill="#333333" width="0.832" height="3.748"/>
	<circle fill="#333333" cx="110.354" cy="33.49" r="0.573"/>
	<path fill="#333333" d="M110.823,37.93l5.81-5.924c-0.178-0.049-0.359-0.082-0.551-0.082h-0.537l-4.722,4.814V37.93z"/>
	<path fill="#333333" d="M116.633,32.006l0.166-0.168l-0.596-0.584l-0.658,0.67h0.537C116.273,31.924,116.455,31.957,116.633,32.006
		z"/>
	<polygon fill="#333333" points="110.109,37.467 110.705,38.051 110.823,37.93 110.823,36.738 	"/>
</g>
<g>
	<path fill="#333333" d="M25.359,22.794l-1.663,1.653c-0.612,0.612-1.438,0.939-2.299,0.939c-0.872,0-1.697-0.34-2.31-0.963
		l-2.332-2.343c-0.611-0.612-0.939-1.439-0.939-2.298c0-0.896,0.362-1.744,0.995-2.366l-0.995-0.998
		c-0.625,0.634-1.461,0.998-2.355,0.998c-0.86,0-1.699-0.34-2.309-0.952l-2.356-2.354c-0.622-0.624-0.951-1.438-0.951-2.31
		c0-0.861,0.35-1.698,0.963-2.298l1.663-1.653c0.613-0.612,1.438-0.94,2.299-0.94c0.872,0,1.698,0.34,2.31,0.963l2.332,2.342
		c0.612,0.612,0.939,1.439,0.939,2.299c0,0.895-0.362,1.744-0.995,2.366l0.995,0.998c0.624-0.634,1.461-0.998,2.355-0.998
		c0.86,0,1.699,0.34,2.309,0.952l2.356,2.354c0.622,0.623,0.95,1.438,0.95,2.311C26.322,21.357,25.973,22.195,25.359,22.794z
		 M15.873,11.744l-2.332-2.343c-0.204-0.204-0.488-0.318-0.77-0.318c-0.284,0-0.566,0.114-0.771,0.307l-1.664,1.653
		c-0.204,0.204-0.316,0.476-0.316,0.759c0,0.294,0.112,0.566,0.316,0.77l2.356,2.354c0.203,0.204,0.488,0.306,0.769,0.306
		c0.328,0,0.589-0.113,0.815-0.352c-0.374-0.373-0.815-0.69-0.815-1.268c0-0.6,0.487-1.087,1.088-1.087
		c0.576,0,0.893,0.442,1.268,0.816c0.237-0.227,0.373-0.487,0.373-0.827C16.19,12.23,16.078,11.947,15.873,11.744z M23.832,19.726
		l-2.356-2.354c-0.203-0.204-0.486-0.317-0.769-0.317c-0.328,0-0.59,0.125-0.814,0.363c0.373,0.373,0.814,0.689,0.814,1.268
		c0,0.6-0.487,1.087-1.088,1.087c-0.576,0-0.894-0.441-1.268-0.816c-0.237,0.228-0.373,0.487-0.373,0.828
		c0,0.283,0.113,0.565,0.317,0.77l2.333,2.343c0.202,0.205,0.486,0.306,0.769,0.306c0.283,0,0.565-0.101,0.771-0.293l1.664-1.654
		c0.204-0.204,0.316-0.476,0.316-0.758C24.148,20.2,24.036,19.93,23.832,19.726z"/>
</g>
</svg>
