<?xml version="1.0" encoding="utf-8"?>
<!-- Generator: Adobe Illustrator 16.0.0, SVG Export Plug-In . SVG Version: 6.00 Build 0)  -->
<!DOCTYPE svg PUBLIC "-//W3C//DTD SVG 1.1//EN" "http://www.w3.org/Graphics/SVG/1.1/DTD/svg11.dtd">
<svg version="1.1" id="Layer_1" xmlns="http://www.w3.org/2000/svg" xmlns:xlink="http://www.w3.org/1999/xlink" x="0px" y="0px"
	 width="34px" height="34px" viewBox="0 0 34 34" enable-background="new 0 0 34 34" xml:space="preserve">
<g>
	<path fill="#333333" d="M122.792,25.038l-9.737-4.308l-9.428,3.885l-0.381-0.926l9.625-3.965c0.127-0.052,0.268-0.051,0.393,0.006
		l9.934,4.393L122.792,25.038z"/>
	<g>
		<path fill="#333333" d="M111.084,25.784l-1.354-1.405h4.893c0,0,0.886,0,0.99,1.405C115.404,25.732,111.084,25.784,111.084,25.784
			z"/>
	</g>
	<g>
		<path fill="#333333" d="M110.928,26.617l-1.197,1.354h1.197c0,0,0.104,2.291,2.342,2.343c0.938-0.155,2.604-0.364,2.344-3.228
			c0.052-0.313,0-0.469,0-0.469H110.928z"/>
	</g>
	<path fill="#333333" d="M108.271,38.066v-4.061c0-1.148,0.935-2.082,2.083-2.082h5.19l0.658-0.67l0.596,0.584l-0.166,0.168
		c0.879,0.244,1.531,1.043,1.531,2v4.061c0,0.109-0.017,0.213-0.031,0.316h0.832c0.012-0.105,0.032-0.207,0.032-0.316v-4.061
		c0-1.607-1.308-2.916-2.915-2.916h-5.728c-1.607,0-2.915,1.309-2.915,2.916v4.061c0,0.109,0.02,0.211,0.031,0.316h0.833
		C108.289,38.279,108.271,38.176,108.271,38.066z"/>
	<polygon fill="#333333" points="110.109,37.467 110.823,36.738 110.823,34.635 109.99,34.635 109.99,38.383 110.823,38.383 
		110.823,37.93 110.705,38.051 	"/>
	<rect x="115.457" y="34.635" fill="#333333" width="0.832" height="3.748"/>
	<circle fill="#333333" cx="110.354" cy="33.49" r="0.573"/>
	<path fill="#333333" d="M110.823,37.93l5.81-5.924c-0.178-0.049-0.359-0.082-0.551-0.082h-0.537l-4.722,4.814V37.93z"/>
	<path fill="#333333" d="M116.633,32.006l0.166-0.168l-0.596-0.584l-0.658,0.67h0.537C116.273,31.924,116.455,31.957,116.633,32.006
		z"/>
	<polygon fill="#333333" points="110.109,37.467 110.705,38.051 110.823,37.93 110.823,36.738 	"/>
</g>
<g>
	<g>
		<path fill="#333333" d="M9.071,14.533c-0.708,1.419-1.708,2.738-1.708,4.344c0,2.312,0,4.623,0,6.935
			c0,0.269,0.224,0.493,0.492,0.493c6.868,0,13.736,0,20.603,0c0.268,0,0.492-0.225,0.492-0.493c0-2.204,0-4.408,0-6.613
			c0-1.563-0.929-2.628-1.708-3.981c-0.316-0.55-1.168-0.055-0.851,0.497c0.857,1.489,1.573,2.393,1.573,4.087
			c0,1.274,0,2.549,0,3.824c0,0.435,0,0.868,0,1.302c0,1.115-0.168,0.393,0.45,0.393c-3.69,0-7.38,0-11.071,0
			c-2.19,0-4.38,0-6.569,0c-0.761,0-1.522,0-2.283,0c-0.997,0-0.144,0.438-0.144,0.116c0-2.003,0-4.005,0-6.007
			c0-1.7,0.812-2.87,1.574-4.399C10.204,14.463,9.354,13.965,9.071,14.533L9.071,14.533z"/>
	</g>
	<g>
		<path fill="#333333" d="M8.493,18.807c6.533,0,13.066,0,19.6,0c0.635,0,0.635-0.985,0-0.985c-6.533,0-13.066,0-19.6,0
			C7.858,17.821,7.858,18.807,8.493,18.807L8.493,18.807z"/>
	</g>
	<polyline fill="none" stroke="#333333" stroke-linejoin="round" stroke-miterlimit="10" points="11.331,18.313 11.331,10.827 
		20.458,10.827 20.458,18.313 	"/>
	<polyline fill="none" stroke="#333333" stroke-linejoin="round" stroke-miterlimit="10" points="13.553,8.605 22.646,8.605 
		22.646,18.108 	"/>
	<polyline fill="none" stroke="#333333" stroke-linejoin="round" stroke-miterlimit="10" points="15.535,6.656 24.595,6.656 
		24.595,18.313 	"/>
</g>
</svg>
