<?xml version="1.0" encoding="utf-8"?>
<!-- Generator: Adobe Illustrator 16.0.0, SVG Export Plug-In . SVG Version: 6.00 Build 0)  -->
<!DOCTYPE svg PUBLIC "-//W3C//DTD SVG 1.1//EN" "http://www.w3.org/Graphics/SVG/1.1/DTD/svg11.dtd">
<svg version="1.1" id="Layer_1" xmlns="http://www.w3.org/2000/svg" xmlns:xlink="http://www.w3.org/1999/xlink" x="0px" y="0px"
	 width="34px" height="34px" viewBox="0 0 34 34" enable-background="new 0 0 34 34" xml:space="preserve">
<g>
	<g>
		<path fill="#333333" d="M19.869,11.953h-4.249c-0.183,0-0.353-0.101-0.439-0.262c-0.087-0.162-0.079-0.358,0.021-0.512
			l2.011-3.057c0.09-0.137,0.242-0.22,0.405-0.225c0.153,0.001,0.318,0.072,0.415,0.204l2.238,3.057
			c0.112,0.152,0.129,0.354,0.043,0.521C20.229,11.847,20.059,11.953,19.869,11.953z M16.547,10.955h2.339l-1.232-1.683
			L16.547,10.955z"/>
	</g>
	<g>
		<path fill="#333333" d="M19.869,17.621h-4.249c-0.275,0-0.499-0.223-0.499-0.5V13.39c0-0.275,0.224-0.499,0.499-0.499h4.249
			c0.275,0,0.499,0.224,0.499,0.499v3.731C20.368,17.397,20.145,17.621,19.869,17.621z M16.12,16.622h3.25V13.89h-3.25V16.622z"/>
	</g>
	<g>
		<path fill="#333333" d="M25.322,20.549H10.111c-0.208,0-0.394-0.128-0.467-0.322c-0.074-0.192-0.021-0.412,0.134-0.551
			l2.641-2.353c0.091-0.082,0.21-0.127,0.332-0.127h9.758c0.117,0,0.229,0.042,0.319,0.117l2.813,2.354
			c0.16,0.134,0.221,0.356,0.147,0.555C25.72,20.417,25.532,20.549,25.322,20.549z M11.421,19.55h12.526l-1.62-1.354h-9.386
			L11.421,19.55z"/>
	</g>
	<g>
		<path fill="#333333" d="M23.428,28.354H11.832c-0.275,0-0.499-0.224-0.499-0.5v-5.575c0-0.274,0.224-0.498,0.499-0.498h11.596
			c0.276,0,0.499,0.224,0.499,0.498v5.575C23.927,28.131,23.704,28.354,23.428,28.354z M12.332,27.355h10.597V22.78H12.332V27.355z"
			/>
	</g>
	<g>
		<circle fill="#333333" cx="17.699" cy="15.332" r="0.757"/>
	</g>
	<g>
		<rect x="13.612" y="23.951" fill="#333333" width="1.664" height="3.903"/>
	</g>
	<g>
		<rect x="16.742" y="23.951" fill="#333333" width="1.663" height="3.903"/>
	</g>
	<g>
		<rect x="19.869" y="23.951" fill="#333333" width="1.664" height="3.903"/>
	</g>
	<g>
		<polygon fill="#333333" points="18.456,4.608 18.456,6.46 21.189,6.46 20.371,5.534 21.189,4.608 		"/>
	</g>
	<g>
		<circle fill="#333333" cx="17.574" cy="3.347" r="0.617"/>
	</g>
	<g>
		<rect x="17.13" y="4.455" fill="#333333" width="0.999" height="4.442"/>
	</g>
</g>
</svg>
