<?xml version="1.0" encoding="utf-8"?>
<!-- Generator: Adobe Illustrator 16.0.0, SVG Export Plug-In . SVG Version: 6.00 Build 0)  -->
<!DOCTYPE svg PUBLIC "-//W3C//DTD SVG 1.1//EN" "http://www.w3.org/Graphics/SVG/1.1/DTD/svg11.dtd">
<svg version="1.1" id="Layer_1" xmlns="http://www.w3.org/2000/svg" xmlns:xlink="http://www.w3.org/1999/xlink" x="0px" y="0px"
	 width="34px" height="34px" viewBox="0 0 34 34" enable-background="new 0 0 34 34" xml:space="preserve">
<g>
	<path fill="#333333" d="M122.792,25.038l-9.737-4.308l-9.428,3.885l-0.381-0.926l9.625-3.965c0.127-0.052,0.268-0.051,0.393,0.006
		l9.934,4.393L122.792,25.038z"/>
	<g>
		<path fill="#333333" d="M111.084,25.784l-1.354-1.405h4.893c0,0,0.886,0,0.99,1.405C115.404,25.732,111.084,25.784,111.084,25.784
			z"/>
	</g>
	<g>
		<path fill="#333333" d="M110.928,26.617l-1.197,1.354h1.197c0,0,0.104,2.291,2.342,2.343c0.938-0.155,2.604-0.364,2.344-3.228
			c0.052-0.313,0-0.469,0-0.469H110.928z"/>
	</g>
	<path fill="#333333" d="M108.271,38.066v-4.061c0-1.148,0.935-2.082,2.083-2.082h5.19l0.658-0.67l0.596,0.584l-0.166,0.168
		c0.879,0.244,1.531,1.043,1.531,2v4.061c0,0.109-0.017,0.213-0.031,0.316h0.832c0.012-0.105,0.032-0.207,0.032-0.316v-4.061
		c0-1.607-1.308-2.916-2.915-2.916h-5.728c-1.607,0-2.915,1.309-2.915,2.916v4.061c0,0.109,0.02,0.211,0.031,0.316h0.833
		C108.289,38.279,108.271,38.176,108.271,38.066z"/>
	<polygon fill="#333333" points="110.109,37.467 110.823,36.738 110.823,34.635 109.99,34.635 109.99,38.383 110.823,38.383 
		110.823,37.93 110.705,38.051 	"/>
	<rect x="115.457" y="34.635" fill="#333333" width="0.832" height="3.748"/>
	<circle fill="#333333" cx="110.354" cy="33.49" r="0.573"/>
	<path fill="#333333" d="M110.823,37.93l5.81-5.924c-0.178-0.049-0.359-0.082-0.551-0.082h-0.537l-4.722,4.814V37.93z"/>
	<path fill="#333333" d="M116.633,32.006l0.166-0.168l-0.596-0.584l-0.658,0.67h0.537C116.273,31.924,116.455,31.957,116.633,32.006
		z"/>
	<polygon fill="#333333" points="110.109,37.467 110.705,38.051 110.823,37.93 110.823,36.738 	"/>
</g>
<g>
	<path fill="#333333" d="M26.394,24.14c-0.346,0.658-1.157,1.041-1.811,1.343c-0.854,0.379-1.71,0.579-2.641,0.505
		c-1.291-0.1-2.42-0.719-3.567-1.242c-0.823-0.369-1.614-0.813-2.34-1.343c-2.25-1.644-4.879-4.717-6.152-7.193
		c-0.413-0.802-0.726-1.65-0.964-2.522C8.58,12.472,8.141,11.263,8.243,9.97c0.072-0.931,0.403-1.744,0.911-2.53
		c0.397-0.598,0.901-1.342,1.605-1.58c0.476-0.171,1.466-0.32,1.967-0.28c0.097,0.007,0.195,0.015,0.288,0.063
		c0.284,0.12,0.538,0.825,0.654,1.115c0.383,0.826,0.751,1.665,1.149,2.481c0.194,0.377,0.577,0.855,0.544,1.286
		c-0.067,0.849-2.678,1.889-2.737,2.64c-0.03,0.375,0.278,0.889,0.449,1.237c1.207,2.639,2.821,4.527,5.24,6.129
		c0.319,0.221,0.779,0.604,1.153,0.634c0.752,0.061,2.185-2.359,3.032-2.293c0.43,0.033,0.845,0.485,1.187,0.734
		c0.744,0.521,1.515,1.014,2.272,1.521c0.269,0.16,0.926,0.52,1.001,0.818c0.034,0.1,0.025,0.198,0.018,0.294
		C26.938,22.743,26.637,23.698,26.394,24.14z"/>
</g>
</svg>
