<?xml version="1.0" encoding="utf-8"?>
<!-- Generator: Adobe Illustrator 16.0.0, SVG Export Plug-In . SVG Version: 6.00 Build 0)  -->
<!DOCTYPE svg PUBLIC "-//W3C//DTD SVG 1.1//EN" "http://www.w3.org/Graphics/SVG/1.1/DTD/svg11.dtd">
<svg version="1.1" id="Layer_1" xmlns="http://www.w3.org/2000/svg" xmlns:xlink="http://www.w3.org/1999/xlink" x="0px" y="0px"
	 width="34px" height="34px" viewBox="0 0 34 34" enable-background="new 0 0 34 34" xml:space="preserve">
<g>
	<path fill="#333333" d="M122.792,25.038l-9.737-4.308l-9.428,3.885l-0.381-0.926l9.625-3.965c0.127-0.052,0.268-0.051,0.393,0.006
		l9.934,4.393L122.792,25.038z"/>
	<g>
		<path fill="#333333" d="M111.084,25.784l-1.354-1.405h4.893c0,0,0.886,0,0.99,1.405C115.404,25.732,111.084,25.784,111.084,25.784
			z"/>
	</g>
	<g>
		<path fill="#333333" d="M110.928,26.617l-1.197,1.354h1.197c0,0,0.104,2.291,2.342,2.343c0.938-0.155,2.604-0.364,2.344-3.228
			c0.052-0.313,0-0.469,0-0.469H110.928z"/>
	</g>
	<path fill="#333333" d="M108.271,38.066v-4.061c0-1.148,0.935-2.082,2.083-2.082h5.19l0.658-0.67l0.596,0.584l-0.166,0.168
		c0.879,0.244,1.531,1.043,1.531,2v4.061c0,0.109-0.017,0.213-0.031,0.316h0.832c0.012-0.105,0.032-0.207,0.032-0.316v-4.061
		c0-1.607-1.308-2.916-2.915-2.916h-5.728c-1.607,0-2.915,1.309-2.915,2.916v4.061c0,0.109,0.02,0.211,0.031,0.316h0.833
		C108.289,38.279,108.271,38.176,108.271,38.066z"/>
	<polygon fill="#333333" points="110.109,37.467 110.823,36.738 110.823,34.635 109.99,34.635 109.99,38.383 110.823,38.383 
		110.823,37.93 110.705,38.051 	"/>
	<rect x="115.457" y="34.635" fill="#333333" width="0.832" height="3.748"/>
	<circle fill="#333333" cx="110.354" cy="33.49" r="0.573"/>
	<path fill="#333333" d="M110.823,37.93l5.81-5.924c-0.178-0.049-0.359-0.082-0.551-0.082h-0.537l-4.722,4.814V37.93z"/>
	<path fill="#333333" d="M116.633,32.006l0.166-0.168l-0.596-0.584l-0.658,0.67h0.537C116.273,31.924,116.455,31.957,116.633,32.006
		z"/>
	<polygon fill="#333333" points="110.109,37.467 110.705,38.051 110.823,37.93 110.823,36.738 	"/>
</g>
<g>
	<path fill="#333333" d="M17.274,5.429c-0.156-0.07-0.332-0.072-0.489-0.007L4.778,10.368l0.475,1.153l11.76-4.844l12.146,5.373
		l0.506-1.141L17.274,5.429z"/>
	<path fill="#333333" d="M20.205,12.98c-0.131-1.753-1.235-1.753-1.235-1.753h-6.104l1.688,1.753
		C14.555,12.98,19.944,12.916,20.205,12.98z"/>
	<path fill="#333333" d="M14.36,15.708c0,0,0.129,2.857,2.921,2.922c1.17-0.194,3.248-0.454,2.924-4.026c0.064-0.39,0-0.584,0-0.584
		H14.36l-1.494,1.688H14.36z"/>
	<path fill="#333333" d="M20.79,19.599h-7.145c-2.005,0-3.637,1.632-3.637,3.637v5.065c0,0.136,0.026,0.263,0.04,0.395h1.039
		c-0.019-0.129-0.04-0.259-0.04-0.395v-5.065c0-1.433,1.166-2.598,2.598-2.598h6.475l-5.89,6.006V24.02h-1.039v4.676h1.039V28.13
		l7.247-7.389c1.097,0.304,1.91,1.301,1.91,2.494v5.065c0,0.136-0.021,0.266-0.039,0.395h1.038c0.015-0.132,0.04-0.259,0.04-0.395
		v-5.065C24.426,21.23,22.795,19.599,20.79,19.599z"/>
	<rect x="20.01" y="24.02" fill="#333333" width="1.038" height="4.676"/>
	<circle fill="#333333" cx="13.645" cy="22.591" r="0.715"/>
</g>
</svg>
