<?xml version="1.0" encoding="utf-8"?>
<!-- Generator: Adobe Illustrator 16.0.0, SVG Export Plug-In . SVG Version: 6.00 Build 0)  -->
<!DOCTYPE svg PUBLIC "-//W3C//DTD SVG 1.1//EN" "http://www.w3.org/Graphics/SVG/1.1/DTD/svg11.dtd">
<svg version="1.1" id="Layer_1" xmlns="http://www.w3.org/2000/svg" xmlns:xlink="http://www.w3.org/1999/xlink" x="0px" y="0px"
	 width="34px" height="34px" viewBox="0 0 34 34" enable-background="new 0 0 34 34" xml:space="preserve">
<g>
	<path fill="#333333" d="M122.792,25.038l-9.737-4.308l-9.428,3.885l-0.381-0.926l9.625-3.965c0.127-0.052,0.268-0.051,0.393,0.006
		l9.934,4.393L122.792,25.038z"/>
	<g>
		<path fill="#333333" d="M111.084,25.784l-1.354-1.405h4.893c0,0,0.886,0,0.99,1.405C115.404,25.732,111.084,25.784,111.084,25.784
			z"/>
	</g>
	<g>
		<path fill="#333333" d="M110.928,26.617l-1.197,1.354h1.197c0,0,0.104,2.291,2.342,2.343c0.938-0.155,2.604-0.364,2.344-3.228
			c0.052-0.313,0-0.469,0-0.469H110.928z"/>
	</g>
	<path fill="#333333" d="M108.271,38.066v-4.061c0-1.148,0.935-2.082,2.083-2.082h5.19l0.658-0.67l0.596,0.584l-0.166,0.168
		c0.879,0.244,1.531,1.043,1.531,2v4.061c0,0.109-0.017,0.213-0.031,0.316h0.832c0.012-0.105,0.032-0.207,0.032-0.316v-4.061
		c0-1.607-1.308-2.916-2.915-2.916h-5.728c-1.607,0-2.915,1.309-2.915,2.916v4.061c0,0.109,0.02,0.211,0.031,0.316h0.833
		C108.289,38.279,108.271,38.176,108.271,38.066z"/>
	<polygon fill="#333333" points="110.109,37.467 110.823,36.738 110.823,34.635 109.99,34.635 109.99,38.383 110.823,38.383 
		110.823,37.93 110.705,38.051 	"/>
	<rect x="115.457" y="34.635" fill="#333333" width="0.832" height="3.748"/>
	<circle fill="#333333" cx="110.354" cy="33.49" r="0.573"/>
	<path fill="#333333" d="M110.823,37.93l5.81-5.924c-0.178-0.049-0.359-0.082-0.551-0.082h-0.537l-4.722,4.814V37.93z"/>
	<path fill="#333333" d="M116.633,32.006l0.166-0.168l-0.596-0.584l-0.658,0.67h0.537C116.273,31.924,116.455,31.957,116.633,32.006
		z"/>
	<polygon fill="#333333" points="110.109,37.467 110.705,38.051 110.823,37.93 110.823,36.738 	"/>
</g>
<g>
	<path fill="#333333" d="M23.749,23.629c-4.991,0-9.984,0-14.977,0c0-5.178,0-10.354,0-15.53c0-1.163-1.805-1.163-1.805,0
		c0,5.478,0,10.954,0,16.433c0,0.491,0.411,0.902,0.902,0.902c5.293,0,10.587,0,15.879,0C24.914,25.434,24.914,23.629,23.749,23.629
		z"/>
	<path fill="#333333" d="M29.193,19.212l-5.572-4.727c0.602-0.871,0.922-1.913,0.922-2.969c0-2.894-2.344-5.237-5.238-5.237
		c-2.894,0-5.236,2.343-5.236,5.237c0,2.895,2.343,5.238,5.236,5.238c1.057,0,2.099-0.32,2.969-0.922l5.574,4.719
		c0.172,0.18,0.417,0.283,0.669,0.283c0.521,0,0.953-0.432,0.953-0.953C29.47,19.629,29.365,19.383,29.193,19.212z M19.305,15.305
		c-2.088,0-3.788-1.7-3.788-3.789c0-2.089,1.7-3.789,3.788-3.789c2.09,0,3.789,1.7,3.789,3.789
		C23.094,13.605,21.395,15.305,19.305,15.305z"/>
	<path fill="#333333" d="M12.681,21.824c0-2.994,0-5.987,0-8.98c0-1.164-1.805-1.164-1.805,0c0,2.993,0,5.986,0,8.98
		C10.876,22.988,12.681,22.988,12.681,21.824z"/>
	<path fill="#333333" d="M15.873,21.824c0-1.424,0-2.849,0-4.273c-0.72-0.487-1.332-1.091-1.804-1.782c0,2.018,0,4.037,0,6.055
		C14.068,22.988,15.873,22.988,15.873,21.824z"/>
	<path fill="#333333" d="M19.506,21.824c0-0.992,0-1.984,0-2.977c-0.625-0.03-1.23-0.125-1.805-0.287c0,1.088,0,2.176,0,3.264
		C17.701,22.988,19.506,22.988,19.506,21.824z"/>
	<path fill="#333333" d="M23.117,21.824c0-1.271,0-2.543,0-3.814c-0.559,0.285-1.164,0.504-1.805,0.648c0,1.056,0,2.111,0,3.166
		C21.313,22.988,23.117,22.988,23.117,21.824z"/>
	<path fill="#333333" d="M20.708,10.234h-0.595c-0.037-0.191-0.11-0.358-0.222-0.5h0.81c0.063,0,0.11-0.048,0.11-0.111V9.269
		c0-0.063-0.048-0.111-0.11-0.111h-2.889c-0.063,0-0.111,0.048-0.111,0.111V9.73c0,0.059,0.049,0.111,0.111,0.111h0.504
		c0.485,0,0.798,0.131,0.93,0.393h-1.434c-0.063,0-0.111,0.048-0.111,0.11v0.354c0,0.063,0.049,0.111,0.111,0.111h1.482
		c-0.102,0.378-0.482,0.583-1.094,0.583h-0.389c-0.063,0-0.111,0.052-0.111,0.111v0.441c0,0.027,0.011,0.055,0.032,0.077
		c0.656,0.697,1.169,1.312,1.728,1.982c0.021,0.028,0.053,0.041,0.088,0.041h0.677c0.045,0,0.083-0.024,0.101-0.063
		c0.02-0.038,0.014-0.086-0.015-0.118c-0.523-0.642-1.076-1.309-1.593-1.86c0.787-0.094,1.298-0.528,1.406-1.194h0.583
		c0.062,0,0.11-0.048,0.11-0.111v-0.354C20.818,10.282,20.77,10.234,20.708,10.234z"/>
</g>
</svg>
