<?xml version="1.0" encoding="utf-8"?>
<!-- Generator: Adobe Illustrator 16.0.0, SVG Export Plug-In . SVG Version: 6.00 Build 0)  -->
<!DOCTYPE svg PUBLIC "-//W3C//DTD SVG 1.1//EN" "http://www.w3.org/Graphics/SVG/1.1/DTD/svg11.dtd">
<svg version="1.1" id="Layer_1" xmlns="http://www.w3.org/2000/svg" xmlns:xlink="http://www.w3.org/1999/xlink" x="0px" y="0px"
	 width="34px" height="34px" viewBox="0 0 34 34" enable-background="new 0 0 34 34" xml:space="preserve">
<g>
	<path fill="#333333" d="M122.792,25.038l-9.737-4.308l-9.428,3.885l-0.381-0.926l9.625-3.965c0.127-0.052,0.268-0.051,0.393,0.006
		l9.934,4.393L122.792,25.038z"/>
	<g>
		<path fill="#333333" d="M111.084,25.784l-1.354-1.405h4.893c0,0,0.886,0,0.99,1.405C115.404,25.732,111.084,25.784,111.084,25.784
			z"/>
	</g>
	<g>
		<path fill="#333333" d="M110.928,26.617l-1.197,1.354h1.197c0,0,0.104,2.291,2.342,2.343c0.938-0.155,2.604-0.364,2.344-3.228
			c0.052-0.313,0-0.469,0-0.469H110.928z"/>
	</g>
	<path fill="#333333" d="M108.271,38.066v-4.061c0-1.148,0.935-2.082,2.083-2.082h5.19l0.658-0.67l0.596,0.584l-0.166,0.168
		c0.879,0.244,1.531,1.043,1.531,2v4.061c0,0.109-0.017,0.213-0.031,0.316h0.832c0.012-0.105,0.032-0.207,0.032-0.316v-4.061
		c0-1.607-1.308-2.916-2.915-2.916h-5.728c-1.607,0-2.915,1.309-2.915,2.916v4.061c0,0.109,0.02,0.211,0.031,0.316h0.833
		C108.289,38.279,108.271,38.176,108.271,38.066z"/>
	<polygon fill="#333333" points="110.109,37.467 110.823,36.738 110.823,34.635 109.99,34.635 109.99,38.383 110.823,38.383 
		110.823,37.93 110.705,38.051 	"/>
	<rect x="115.457" y="34.635" fill="#333333" width="0.832" height="3.748"/>
	<circle fill="#333333" cx="110.354" cy="33.49" r="0.573"/>
	<path fill="#333333" d="M110.823,37.93l5.81-5.924c-0.178-0.049-0.359-0.082-0.551-0.082h-0.537l-4.722,4.814V37.93z"/>
	<path fill="#333333" d="M116.633,32.006l0.166-0.168l-0.596-0.584l-0.658,0.67h0.537C116.273,31.924,116.455,31.957,116.633,32.006
		z"/>
	<polygon fill="#333333" points="110.109,37.467 110.705,38.051 110.823,37.93 110.823,36.738 	"/>
</g>
<g>
	<circle fill="#333333" cx="16.783" cy="8.224" r="2.829"/>
	<path fill="none" stroke="#333333" stroke-miterlimit="10" d="M25.42,19.114"/>
	<g>
		<path fill="#333333" d="M16.158,16.373c1.293,0,2.586,0,3.879,0c0.728,0,0.728-1.126,0-1.126c-1.293,0-2.586,0-3.879,0
			C15.43,15.246,15.43,16.373,16.158,16.373L16.158,16.373z"/>
	</g>
	<g>
		<path fill="#333333" d="M16.158,18.506c1.293,0,2.586,0,3.879,0c0.728,0,0.728-1.127,0-1.127c-1.293,0-2.586,0-3.879,0
			C15.43,17.378,15.43,18.506,16.158,18.506L16.158,18.506z"/>
	</g>
	<g>
		<path fill="#333333" d="M16.095,20.639c1.293,0,2.587,0,3.88,0c0.728,0,0.728-1.127,0-1.127c-1.293,0-2.586,0-3.88,0
			C15.368,19.512,15.368,20.639,16.095,20.639L16.095,20.639z"/>
	</g>
	<path fill="#333333" d="M21.714,13.375h-1.677v-1.031H14.62h-1.767v1.61v7.8h0.97v3.919c0,0.294,0.238,0.532,0.532,0.532h4.205
		c0.148,0,0.29-0.063,0.391-0.17l3.154-3.405c0.092-0.099,0.142-0.228,0.142-0.361v-8.362
		C22.246,13.613,22.009,13.375,21.714,13.375z M14.887,14.439h6.295v7.297H18.36c-0.294,0-0.532,0.238-0.532,0.532v2.873h-2.942
		V14.439z M18.892,24.532v-1.731h1.604L18.892,24.532z"/>
</g>
</svg>
