<?xml version="1.0" encoding="utf-8"?>
<!-- Generator: Adobe Illustrator 16.0.0, SVG Export Plug-In . SVG Version: 6.00 Build 0)  -->
<!DOCTYPE svg PUBLIC "-//W3C//DTD SVG 1.1//EN" "http://www.w3.org/Graphics/SVG/1.1/DTD/svg11.dtd">
<svg version="1.1" id="Layer_1" xmlns="http://www.w3.org/2000/svg" xmlns:xlink="http://www.w3.org/1999/xlink" x="0px" y="0px"
	 width="34px" height="34px" viewBox="0 0 34 34" enable-background="new 0 0 34 34" xml:space="preserve">
<g>
	<path fill="#333333" d="M122.792,25.038l-9.737-4.308l-9.428,3.885l-0.381-0.926l9.625-3.965c0.127-0.052,0.268-0.051,0.393,0.006
		l9.934,4.393L122.792,25.038z"/>
	<g>
		<path fill="#333333" d="M111.084,25.784l-1.354-1.405h4.893c0,0,0.886,0,0.99,1.405C115.404,25.732,111.084,25.784,111.084,25.784
			z"/>
	</g>
	<g>
		<path fill="#333333" d="M110.928,26.617l-1.197,1.354h1.197c0,0,0.104,2.291,2.342,2.343c0.938-0.155,2.604-0.364,2.344-3.228
			c0.052-0.313,0-0.469,0-0.469H110.928z"/>
	</g>
	<path fill="#333333" d="M108.271,38.066v-4.061c0-1.148,0.935-2.082,2.083-2.082h5.19l0.658-0.67l0.596,0.584l-0.166,0.168
		c0.879,0.244,1.531,1.043,1.531,2v4.061c0,0.109-0.017,0.213-0.031,0.316h0.832c0.012-0.105,0.032-0.207,0.032-0.316v-4.061
		c0-1.607-1.308-2.916-2.915-2.916h-5.728c-1.607,0-2.915,1.309-2.915,2.916v4.061c0,0.109,0.02,0.211,0.031,0.316h0.833
		C108.289,38.279,108.271,38.176,108.271,38.066z"/>
	<polygon fill="#333333" points="110.109,37.467 110.823,36.738 110.823,34.635 109.99,34.635 109.99,38.383 110.823,38.383 
		110.823,37.93 110.705,38.051 	"/>
	<rect x="115.457" y="34.635" fill="#333333" width="0.832" height="3.748"/>
	<circle fill="#333333" cx="110.354" cy="33.49" r="0.573"/>
	<path fill="#333333" d="M110.823,37.93l5.81-5.924c-0.178-0.049-0.359-0.082-0.551-0.082h-0.537l-4.722,4.814V37.93z"/>
	<path fill="#333333" d="M116.633,32.006l0.166-0.168l-0.596-0.584l-0.658,0.67h0.537C116.273,31.924,116.455,31.957,116.633,32.006
		z"/>
	<polygon fill="#333333" points="110.109,37.467 110.705,38.051 110.823,37.93 110.823,36.738 	"/>
</g>
<g>
	<g>
		<path fill="#333333" d="M25.912,27.463c-0.413,0-0.815-0.17-1.096-0.463l-4.179-4.166c-1.425,0.986-3.131,1.51-4.86,1.51
			c-4.739,0-8.576-3.837-8.576-8.576s3.837-8.576,8.576-8.576s8.576,3.837,8.576,8.576c0,1.73-0.524,3.436-1.51,4.861l4.177,4.178
			c0.281,0.28,0.452,0.684,0.452,1.097C27.473,26.756,26.766,27.463,25.912,27.463z M15.777,10.31c-3.01,0-5.458,2.448-5.458,5.458
			c0,3.01,2.448,5.458,5.458,5.458c3.009,0,5.457-2.448,5.457-5.458C21.234,12.758,18.786,10.31,15.777,10.31z"/>
	</g>
</g>
</svg>
