<?xml version="1.0" encoding="utf-8"?>
<!-- Generator: Adobe Illustrator 16.0.0, SVG Export Plug-In . SVG Version: 6.00 Build 0)  -->
<!DOCTYPE svg PUBLIC "-//W3C//DTD SVG 1.1//EN" "http://www.w3.org/Graphics/SVG/1.1/DTD/svg11.dtd">
<svg version="1.1" id="Layer_1" xmlns="http://www.w3.org/2000/svg" xmlns:xlink="http://www.w3.org/1999/xlink" x="0px" y="0px"
	 width="34px" height="34px" viewBox="0 0 34 34" enable-background="new 0 0 34 34" xml:space="preserve">
<g>
	<path fill="#333333" d="M122.792,25.038l-9.737-4.308l-9.428,3.885l-0.381-0.926l9.625-3.965c0.127-0.052,0.268-0.051,0.393,0.006
		l9.934,4.393L122.792,25.038z"/>
	<g>
		<path fill="#333333" d="M111.084,25.784l-1.354-1.405h4.893c0,0,0.886,0,0.99,1.405C115.404,25.732,111.084,25.784,111.084,25.784
			z"/>
	</g>
	<g>
		<path fill="#333333" d="M110.928,26.617l-1.197,1.354h1.197c0,0,0.104,2.291,2.342,2.343c0.938-0.155,2.604-0.364,2.344-3.228
			c0.052-0.313,0-0.469,0-0.469H110.928z"/>
	</g>
	<path fill="#333333" d="M108.271,38.066v-4.061c0-1.148,0.935-2.082,2.083-2.082h5.19l0.658-0.67l0.596,0.584l-0.166,0.168
		c0.879,0.244,1.531,1.043,1.531,2v4.061c0,0.109-0.017,0.213-0.031,0.316h0.832c0.012-0.105,0.032-0.207,0.032-0.316v-4.061
		c0-1.607-1.308-2.916-2.915-2.916h-5.728c-1.607,0-2.915,1.309-2.915,2.916v4.061c0,0.109,0.02,0.211,0.031,0.316h0.833
		C108.289,38.279,108.271,38.176,108.271,38.066z"/>
	<polygon fill="#333333" points="110.109,37.467 110.823,36.738 110.823,34.635 109.99,34.635 109.99,38.383 110.823,38.383 
		110.823,37.93 110.705,38.051 	"/>
	<rect x="115.457" y="34.635" fill="#333333" width="0.832" height="3.748"/>
	<circle fill="#333333" cx="110.354" cy="33.49" r="0.573"/>
	<path fill="#333333" d="M110.823,37.93l5.81-5.924c-0.178-0.049-0.359-0.082-0.551-0.082h-0.537l-4.722,4.814V37.93z"/>
	<path fill="#333333" d="M116.633,32.006l0.166-0.168l-0.596-0.584l-0.658,0.67h0.537C116.273,31.924,116.455,31.957,116.633,32.006
		z"/>
	<polygon fill="#333333" points="110.109,37.467 110.705,38.051 110.823,37.93 110.823,36.738 	"/>
</g>
<path fill="#333333" d="M23.978,17.44c-0.509,0-0.99,0.099-1.45,0.246l-2.056-3.448c0.874-0.835,1.42-1.994,1.42-3.278
	c0-2.534-2.114-4.595-4.713-4.595s-4.713,2.062-4.713,4.595c0,1.549,0.796,2.916,2.004,3.749l-1.783,2.993
	c-0.474-0.156-0.971-0.26-1.498-0.26c-2.599,0-4.712,2.062-4.712,4.596c0,2.533,2.113,4.595,4.712,4.595
	c2.344,0,4.277-1.682,4.637-3.87h3.514c0.359,2.188,2.293,3.87,4.638,3.87c2.598,0,4.712-2.062,4.712-4.595
	C28.689,19.502,26.575,17.44,23.978,17.44z M17.179,7.815c1.799,0,3.262,1.41,3.262,3.144c0,1.733-1.463,3.144-3.262,3.144
	s-3.262-1.411-3.262-3.144C13.917,9.226,15.38,7.815,17.179,7.815z M11.189,25.18c-1.798,0-3.261-1.411-3.261-3.144
	c0-1.734,1.463-3.145,3.261-3.145s3.261,1.41,3.261,3.145C14.45,23.769,12.987,25.18,11.189,25.18z M19.34,21.31h-3.514
	c-0.199-1.207-0.875-2.252-1.841-2.952l1.805-3.03c0.442,0.134,0.902,0.227,1.389,0.227c0.755,0,1.459-0.19,2.092-0.499l1.949,3.271
	C20.232,19.026,19.541,20.085,19.34,21.31z M23.978,25.18c-1.799,0-3.262-1.411-3.262-3.144c0-1.734,1.463-3.145,3.262-3.145
	c1.798,0,3.261,1.41,3.261,3.145C27.238,23.769,25.775,25.18,23.978,25.18z"/>
</svg>
