<?xml version="1.0" encoding="utf-8"?>
<!-- Generator: Adobe Illustrator 16.0.0, SVG Export Plug-In . SVG Version: 6.00 Build 0)  -->
<!DOCTYPE svg PUBLIC "-//W3C//DTD SVG 1.1//EN" "http://www.w3.org/Graphics/SVG/1.1/DTD/svg11.dtd">
<svg version="1.1" id="Layer_1" xmlns="http://www.w3.org/2000/svg" xmlns:xlink="http://www.w3.org/1999/xlink" x="0px" y="0px"
	 width="34px" height="34px" viewBox="0 0 34 34" enable-background="new 0 0 34 34" xml:space="preserve">
<g>
	<path fill="#333333" d="M122.792,25.038l-9.737-4.308l-9.428,3.885l-0.381-0.926l9.625-3.965c0.127-0.052,0.268-0.051,0.393,0.006
		l9.934,4.393L122.792,25.038z"/>
	<g>
		<path fill="#333333" d="M111.084,25.784l-1.354-1.405h4.893c0,0,0.886,0,0.99,1.405C115.404,25.732,111.084,25.784,111.084,25.784
			z"/>
	</g>
	<g>
		<path fill="#333333" d="M110.928,26.617l-1.197,1.354h1.197c0,0,0.104,2.291,2.342,2.343c0.938-0.155,2.604-0.364,2.344-3.228
			c0.052-0.313,0-0.469,0-0.469H110.928z"/>
	</g>
	<path fill="#333333" d="M108.271,38.066v-4.061c0-1.148,0.935-2.082,2.083-2.082h5.19l0.658-0.67l0.596,0.584l-0.166,0.168
		c0.879,0.244,1.531,1.043,1.531,2v4.061c0,0.109-0.017,0.213-0.031,0.316h0.832c0.012-0.105,0.032-0.207,0.032-0.316v-4.061
		c0-1.607-1.308-2.916-2.915-2.916h-5.728c-1.607,0-2.915,1.309-2.915,2.916v4.061c0,0.109,0.02,0.211,0.031,0.316h0.833
		C108.289,38.279,108.271,38.176,108.271,38.066z"/>
	<polygon fill="#333333" points="110.109,37.467 110.823,36.738 110.823,34.635 109.99,34.635 109.99,38.383 110.823,38.383 
		110.823,37.93 110.705,38.051 	"/>
	<rect x="115.457" y="34.635" fill="#333333" width="0.832" height="3.748"/>
	<circle fill="#333333" cx="110.354" cy="33.49" r="0.573"/>
	<path fill="#333333" d="M110.823,37.93l5.81-5.924c-0.178-0.049-0.359-0.082-0.551-0.082h-0.537l-4.722,4.814V37.93z"/>
	<path fill="#333333" d="M116.633,32.006l0.166-0.168l-0.596-0.584l-0.658,0.67h0.537C116.273,31.924,116.455,31.957,116.633,32.006
		z"/>
	<polygon fill="#333333" points="110.109,37.467 110.705,38.051 110.823,37.93 110.823,36.738 	"/>
</g>
<g>
	<g>
		<g>
			<path fill="#333333" d="M26.781,20.683c-4.332-0.314-7.866,2.725-8.435,6.977c-0.106,0.797,1.145,0.787,1.25,0
				c0.482-3.613,3.603-5.987,7.185-5.727C27.586,21.991,27.58,20.74,26.781,20.683L26.781,20.683z"/>
		</g>
	</g>
	<circle fill="#333333" cx="23.961" cy="25.384" r="1.501"/>
	<g>
		<g>
			<path fill="#333333" d="M17.353,27.51c-0.936-4.242-4.823-6.776-9.073-6.12c-0.795,0.123-0.456,1.327,0.332,1.205
				c3.607-0.557,6.759,1.727,7.536,5.247C16.321,28.629,17.526,28.295,17.353,27.51L17.353,27.51z"/>
		</g>
	</g>
	<circle fill="#333333" cx="12.103" cy="25.884" r="1.5"/>
	<g>
		<g>
			<path fill="#333333" d="M23.889,9.633c-1.967,3.859-0.729,8.286,2.98,10.535c0.691,0.419,1.319-0.662,0.631-1.08
				c-3.11-1.885-4.187-5.578-2.531-8.824C25.334,9.547,24.255,8.915,23.889,9.633L23.889,9.633z"/>
		</g>
	</g>
	<circle fill="#333333" cx="27.151" cy="13.943" r="1.501"/>
	<g>
		<g>
			<path fill="#333333" d="M12.355,9.443c3.198,2.94,7.76,2.933,10.949-0.02c0.592-0.549-0.294-1.431-0.885-0.884
				c-2.681,2.482-6.489,2.493-9.18,0.02C12.646,8.015,11.76,8.897,12.355,9.443L12.355,9.443z"/>
		</g>
	</g>
	<circle fill="#333333" cx="17.932" cy="7.195" r="1.5"/>
	<g>
		<g>
			<path fill="#333333" d="M8.07,20.379c3.843-1.786,5.584-6.072,4.071-10.033c-0.284-0.745-1.493-0.422-1.205,0.332
				c1.329,3.48-0.114,7.049-3.497,8.621C6.709,19.639,7.344,20.716,8.07,20.379L8.07,20.379z"/>
		</g>
	</g>
	<circle fill="#333333" cx="8.259" cy="13.943" r="1.501"/>
	<circle fill="#333333" cx="17.813" cy="17.247" r="2.381"/>
</g>
</svg>
