<?xml version="1.0" encoding="utf-8"?>
<!-- Generator: Adobe Illustrator 16.0.0, SVG Export Plug-In . SVG Version: 6.00 Build 0)  -->
<!DOCTYPE svg PUBLIC "-//W3C//DTD SVG 1.1//EN" "http://www.w3.org/Graphics/SVG/1.1/DTD/svg11.dtd">
<svg version="1.1" id="Layer_1" xmlns="http://www.w3.org/2000/svg" xmlns:xlink="http://www.w3.org/1999/xlink" x="0px" y="0px"
	 width="34px" height="34px" viewBox="0 0 34 34" enable-background="new 0 0 34 34" xml:space="preserve">
<g>
	<path fill="#333333" d="M122.792,25.038l-9.737-4.308l-9.428,3.885l-0.381-0.926l9.625-3.965c0.127-0.052,0.268-0.051,0.393,0.006
		l9.934,4.393L122.792,25.038z"/>
	<g>
		<path fill="#333333" d="M111.084,25.784l-1.354-1.405h4.893c0,0,0.886,0,0.99,1.405C115.404,25.732,111.084,25.784,111.084,25.784
			z"/>
	</g>
	<g>
		<path fill="#333333" d="M110.928,26.617l-1.197,1.354h1.197c0,0,0.104,2.291,2.342,2.343c0.938-0.155,2.604-0.364,2.344-3.228
			c0.052-0.313,0-0.469,0-0.469H110.928z"/>
	</g>
	<path fill="#333333" d="M108.271,38.066v-4.061c0-1.148,0.935-2.082,2.083-2.082h5.19l0.658-0.67l0.596,0.584l-0.166,0.168
		c0.879,0.244,1.531,1.043,1.531,2v4.061c0,0.109-0.017,0.213-0.031,0.316h0.832c0.012-0.105,0.032-0.207,0.032-0.316v-4.061
		c0-1.607-1.308-2.916-2.915-2.916h-5.728c-1.607,0-2.915,1.309-2.915,2.916v4.061c0,0.109,0.02,0.211,0.031,0.316h0.833
		C108.289,38.279,108.271,38.176,108.271,38.066z"/>
	<polygon fill="#333333" points="110.109,37.467 110.823,36.738 110.823,34.635 109.99,34.635 109.99,38.383 110.823,38.383 
		110.823,37.93 110.705,38.051 	"/>
	<rect x="115.457" y="34.635" fill="#333333" width="0.832" height="3.748"/>
	<circle fill="#333333" cx="110.354" cy="33.49" r="0.573"/>
	<path fill="#333333" d="M110.823,37.93l5.81-5.924c-0.178-0.049-0.359-0.082-0.551-0.082h-0.537l-4.722,4.814V37.93z"/>
	<path fill="#333333" d="M116.633,32.006l0.166-0.168l-0.596-0.584l-0.658,0.67h0.537C116.273,31.924,116.455,31.957,116.633,32.006
		z"/>
	<polygon fill="#333333" points="110.109,37.467 110.705,38.051 110.823,37.93 110.823,36.738 	"/>
</g>
<g>
	<g>
		<path fill="#333333" d="M21.576,16.278c0,0.083-0.066,0.182-0.154,0.198l-1.02,0.154c-0.061,0.176-0.127,0.342-0.215,0.501
			c0.188,0.271,0.387,0.513,0.59,0.761c0.033,0.039,0.055,0.088,0.055,0.138s-0.016,0.089-0.049,0.126
			c-0.133,0.178-0.877,0.987-1.064,0.987c-0.049,0-0.1-0.022-0.143-0.05l-0.76-0.595c-0.16,0.083-0.332,0.154-0.502,0.209
			c-0.039,0.337-0.072,0.694-0.16,1.025c-0.023,0.088-0.1,0.154-0.199,0.154h-1.224c-0.1,0-0.187-0.071-0.198-0.165l-0.155-1.015
			c-0.17-0.055-0.335-0.121-0.495-0.204l-0.776,0.59c-0.039,0.033-0.089,0.05-0.139,0.05s-0.1-0.022-0.138-0.061
			c-0.292-0.265-0.678-0.606-0.909-0.927c-0.027-0.037-0.039-0.082-0.039-0.126c0-0.05,0.017-0.088,0.045-0.127
			c0.187-0.253,0.391-0.496,0.578-0.755c-0.094-0.176-0.171-0.358-0.226-0.545l-1.009-0.149c-0.094-0.017-0.16-0.105-0.16-0.198
			v-1.224c0-0.082,0.066-0.182,0.149-0.198l1.024-0.154c0.056-0.176,0.127-0.342,0.215-0.507c-0.187-0.265-0.386-0.513-0.59-0.761
			c-0.032-0.039-0.055-0.083-0.055-0.132c0-0.05,0.022-0.089,0.05-0.127c0.132-0.182,0.876-0.986,1.063-0.986
			c0.05,0,0.1,0.022,0.144,0.056l0.761,0.589c0.159-0.083,0.331-0.154,0.501-0.21c0.039-0.336,0.071-0.694,0.16-1.025
			c0.022-0.088,0.099-0.154,0.198-0.154h1.224c0.099,0,0.187,0.071,0.199,0.165l0.154,1.014c0.17,0.056,0.336,0.122,0.496,0.204
			l0.783-0.589c0.031-0.033,0.082-0.05,0.131-0.05c0.051,0,0.1,0.022,0.139,0.056c0.291,0.27,0.678,0.611,0.908,0.937
			c0.027,0.033,0.039,0.077,0.039,0.122c0,0.049-0.018,0.087-0.045,0.126c-0.186,0.253-0.391,0.496-0.578,0.755
			c0.094,0.176,0.17,0.358,0.227,0.54l1.01,0.154c0.092,0.017,0.158,0.105,0.158,0.199V16.278z M17.344,14.244
			c-0.777,0-1.412,0.634-1.412,1.411c0,0.777,0.635,1.411,1.412,1.411c0.777,0,1.41-0.633,1.41-1.411
			C18.754,14.878,18.121,14.244,17.344,14.244z"/>
	</g>
	<path fill="#333333" d="M26.455,11.901c-0.105,0.179-0.207,0.357-0.313,0.536c-1.77-4.57-6.492-7.119-11.389-6.029
		c-0.565,0.125-0.326,0.99,0.237,0.864c4.474-0.996,8.755,1.37,10.341,5.553c-0.209-0.066-0.416-0.133-0.623-0.2
		c-0.553-0.177-0.787,0.689-0.24,0.865c0.482,0.154,0.963,0.308,1.443,0.462c0.213,0.068,0.377-0.018,0.469-0.159
		c0.012-0.016,0.027-0.028,0.037-0.047c0.271-0.464,0.541-0.929,0.811-1.393C27.52,11.853,26.744,11.401,26.455,11.901z"/>
	<path fill="#333333" d="M25.199,19.558c-1.986,4.182-6.455,6.108-10.767,4.788c0.168-0.113,0.335-0.227,0.501-0.34
		c0.476-0.324,0.027-1.102-0.452-0.775c-0.415,0.283-0.829,0.565-1.243,0.848c-0.003,0.002-0.006,0.004-0.009,0.006l0,0
		c-0.001,0-0.001,0.001-0.003,0.002c-0.167,0.107-0.278,0.32-0.204,0.505c0.2,0.499,0.4,0.997,0.601,1.495
		c0.212,0.53,1.08,0.299,0.864-0.238c-0.083-0.207-0.166-0.414-0.25-0.622c4.656,1.423,9.603-0.724,11.738-5.216
		C26.221,19.49,25.449,19.035,25.199,19.558z"/>
	<path fill="#333333" d="M10.599,10.918c0.127,0.563,0.991,0.324,0.863-0.239c-0.11-0.493-0.222-0.986-0.334-1.478
		c-0.049-0.217-0.206-0.314-0.375-0.32c-0.02-0.002-0.037-0.009-0.057-0.009C10.16,8.875,9.622,8.878,9.084,8.881
		c-0.578,0.003-0.579,0.9,0,0.896C9.292,9.776,9.5,9.775,9.708,9.774c-3.035,3.846-2.846,9.196,0.579,12.868
		c0.396,0.424,1.028-0.211,0.634-0.633c-3.129-3.355-3.271-8.238-0.468-11.732C10.502,10.491,10.55,10.705,10.599,10.918z"/>
</g>
</svg>
