<?xml version="1.0" encoding="utf-8"?>
<!-- Generator: Adobe Illustrator 16.0.0, SVG Export Plug-In . SVG Version: 6.00 Build 0)  -->
<!DOCTYPE svg PUBLIC "-//W3C//DTD SVG 1.1//EN" "http://www.w3.org/Graphics/SVG/1.1/DTD/svg11.dtd">
<svg version="1.1" id="Layer_1" xmlns="http://www.w3.org/2000/svg" xmlns:xlink="http://www.w3.org/1999/xlink" x="0px" y="0px"
	 width="34px" height="34px" viewBox="0 0 34 34" enable-background="new 0 0 34 34" xml:space="preserve">
<g>
	<path fill="#333333" d="M122.792,25.038l-9.737-4.308l-9.428,3.885l-0.381-0.926l9.625-3.965c0.127-0.052,0.268-0.051,0.393,0.006
		l9.934,4.393L122.792,25.038z"/>
	<g>
		<path fill="#333333" d="M111.084,25.784l-1.354-1.405h4.893c0,0,0.886,0,0.99,1.405C115.404,25.732,111.084,25.784,111.084,25.784
			z"/>
	</g>
	<g>
		<path fill="#333333" d="M110.928,26.617l-1.197,1.354h1.197c0,0,0.104,2.291,2.342,2.343c0.938-0.155,2.604-0.364,2.344-3.228
			c0.052-0.313,0-0.469,0-0.469H110.928z"/>
	</g>
	<path fill="#333333" d="M108.271,38.066v-4.061c0-1.148,0.935-2.082,2.083-2.082h5.19l0.658-0.67l0.596,0.584l-0.166,0.168
		c0.879,0.244,1.531,1.043,1.531,2v4.061c0,0.109-0.017,0.213-0.031,0.316h0.832c0.012-0.105,0.032-0.207,0.032-0.316v-4.061
		c0-1.607-1.308-2.916-2.915-2.916h-5.728c-1.607,0-2.915,1.309-2.915,2.916v4.061c0,0.109,0.02,0.211,0.031,0.316h0.833
		C108.289,38.279,108.271,38.176,108.271,38.066z"/>
	<polygon fill="#333333" points="110.109,37.467 110.823,36.738 110.823,34.635 109.99,34.635 109.99,38.383 110.823,38.383 
		110.823,37.93 110.705,38.051 	"/>
	<rect x="115.457" y="34.635" fill="#333333" width="0.832" height="3.748"/>
	<circle fill="#333333" cx="110.354" cy="33.49" r="0.573"/>
	<path fill="#333333" d="M110.823,37.93l5.81-5.924c-0.178-0.049-0.359-0.082-0.551-0.082h-0.537l-4.722,4.814V37.93z"/>
	<path fill="#333333" d="M116.633,32.006l0.166-0.168l-0.596-0.584l-0.658,0.67h0.537C116.273,31.924,116.455,31.957,116.633,32.006
		z"/>
	<polygon fill="#333333" points="110.109,37.467 110.705,38.051 110.823,37.93 110.823,36.738 	"/>
</g>
<g>
	<path fill="#333333" d="M27.893,16.723c0,5.87-4.756,10.625-10.625,10.625c-5.87,0-10.625-4.755-10.625-10.625
		c0-5.87,4.755-10.625,10.625-10.625C23.137,6.098,27.893,10.853,27.893,16.723z M11.528,18.703
		c-0.213-0.629-0.332-1.292-0.332-1.98c0-0.7,0.119-1.352,0.332-1.98l-2.301-2.3c-0.676,1.281-1.067,2.739-1.067,4.281
		c0,1.542,0.391,3,1.067,4.28L11.528,18.703z M21.821,16.723c0-2.514-2.04-4.554-4.554-4.554c-2.515,0-4.554,2.04-4.554,4.554
		c0,2.514,2.04,4.554,4.554,4.554C19.781,21.276,21.821,19.236,21.821,16.723z M12.986,8.683l2.3,2.301
		c0.628-0.213,1.292-0.332,1.981-0.332c0.699,0,1.351,0.119,1.979,0.332l2.301-2.301c-1.28-0.676-2.74-1.067-4.28-1.067
		C15.726,7.616,14.267,8.007,12.986,8.683z M21.548,24.763l-2.301-2.301c-0.629,0.214-1.28,0.332-1.979,0.332
		c-0.689,0-1.353-0.118-1.981-0.332l-2.3,2.301c1.281,0.677,2.739,1.067,4.281,1.067C18.808,25.83,20.268,25.439,21.548,24.763z
		 M25.307,21.003c0.676-1.28,1.068-2.738,1.068-4.28c0-1.542-0.393-3-1.068-4.281l-2.3,2.3c0.213,0.628,0.332,1.292,0.332,1.98
		s-0.119,1.352-0.332,1.98L25.307,21.003z"/>
</g>
</svg>
