<?xml version="1.0" encoding="utf-8"?>
<!-- Generator: Adobe Illustrator 16.0.0, SVG Export Plug-In . SVG Version: 6.00 Build 0)  -->
<!DOCTYPE svg PUBLIC "-//W3C//DTD SVG 1.1//EN" "http://www.w3.org/Graphics/SVG/1.1/DTD/svg11.dtd">
<svg version="1.1" id="Layer_1" xmlns="http://www.w3.org/2000/svg" xmlns:xlink="http://www.w3.org/1999/xlink" x="0px" y="0px"
	 width="34px" height="34px" viewBox="0 0 34 34" enable-background="new 0 0 34 34" xml:space="preserve">
<g>
	<path fill="#333333" d="M19.067,18.242H15.6c-0.342,0-0.619,0.277-0.619,0.619v3.466c0,0.344,0.277,0.619,0.619,0.619h3.467
		c0.343,0,0.619-0.275,0.619-0.619v-3.466C19.687,18.52,19.41,18.242,19.067,18.242z M18.449,21.708h-2.23v-2.227h2.23V21.708z"/>
	<path fill="#333333" d="M32.752,14.897l-6.129-5.757c-0.24-0.227-0.616-0.224-0.854,0.006l-4.1,3.967l-4.075-3.966
		c-0.241-0.233-0.623-0.233-0.863,0l-4.159,4.047L8.257,9.147C8.02,8.917,7.644,8.914,7.403,9.141l-6.128,5.757
		c-0.185,0.174-0.246,0.443-0.152,0.679c0.094,0.236,0.322,0.391,0.576,0.391h1.299v7.737c0,0.343,0.277,0.619,0.619,0.619h7.913
		v1.889c0,0.341,0.277,0.618,0.619,0.618h10.027c0.344,0,0.619-0.277,0.619-0.618v-1.889h7.615c0.342,0,0.618-0.276,0.618-0.619
		v-7.737h1.3c0.254,0,0.481-0.155,0.576-0.391C32.997,15.341,32.937,15.071,32.752,14.897z M17.163,10.456l5.394,5.249h-0.381
		H12.148h-0.38L17.163,10.456z M4.235,23.086v-7.737c0-0.342-0.277-0.619-0.619-0.619H3.262l4.559-4.282l3.823,3.652l-1.83,1.781
		c-0.181,0.176-0.237,0.443-0.142,0.676s0.322,0.386,0.574,0.386h1.284v6.144H4.235z M21.557,25.594h-8.789v-8.651h8.789v6.144
		v1.238V25.594z M30.41,14.729c-0.343,0-0.619,0.277-0.619,0.619v7.737h-6.996v-6.144h1.285c0.253,0,0.479-0.153,0.574-0.386
		c0.094-0.233,0.038-0.5-0.143-0.676l-1.955-1.902l3.649-3.53l4.558,4.282H30.41z"/>
</g>
</svg>
